<mxfile host="Electron" agent="Mozilla/5.0 (Windows NT 10.0; Win64; x64) AppleWebKit/537.36 (KHTML, like Gecko) draw.io/26.2.2 Chrome/134.0.6998.178 Electron/35.1.2 Safari/537.36" version="26.2.2">
  <diagram name="Lapa-1" id="SK30Z7C_JCKH0SYK0KXP">
    <mxGraphModel dx="1092" dy="825" grid="1" gridSize="10" guides="1" tooltips="1" connect="1" arrows="1" fold="1" page="1" pageScale="1" pageWidth="827" pageHeight="1169" math="0" shadow="0">
      <root>
        <mxCell id="0" />
        <mxCell id="1" parent="0" />
        <mxCell id="7ilkys_7o96ZD207sqkN-8" value="" style="rounded=0;whiteSpace=wrap;html=1;" parent="1" vertex="1">
          <mxGeometry x="200.35" y="740" width="300" height="60" as="geometry" />
        </mxCell>
        <mxCell id="MQegwMCzvPKAyx-gIZXv-19" value="" style="rounded=0;whiteSpace=wrap;html=1;" parent="1" vertex="1">
          <mxGeometry x="342.44" y="20" width="220.31" height="462.5" as="geometry" />
        </mxCell>
        <mxCell id="MQegwMCzvPKAyx-gIZXv-12" value="" style="endArrow=none;html=1;rounded=0;entryX=0;entryY=1;entryDx=0;entryDy=0;entryPerimeter=0;" parent="1" source="MQegwMCzvPKAyx-gIZXv-8" edge="1" target="MQegwMCzvPKAyx-gIZXv-1">
          <mxGeometry width="50" height="50" relative="1" as="geometry">
            <mxPoint x="492.75" y="352.5" as="sourcePoint" />
            <mxPoint x="630" y="150" as="targetPoint" />
          </mxGeometry>
        </mxCell>
        <mxCell id="QL6g227ISgHcjVaRL9gr-1" value="«subsystem»&lt;br&gt;&lt;b&gt;Tiešsaistes iepirkšanās&lt;/b&gt;" style="html=1;whiteSpace=wrap;opacity=0;align=left;" parent="1" vertex="1">
          <mxGeometry x="342.44" y="20" width="230.31" height="50" as="geometry" />
        </mxCell>
        <mxCell id="MQegwMCzvPKAyx-gIZXv-1" value="Autorizēts lietotājs" style="shape=umlActor;verticalLabelPosition=bottom;verticalAlign=top;html=1;outlineConnect=0;" parent="1" vertex="1">
          <mxGeometry x="632.75" y="102.5" width="30" height="60" as="geometry" />
        </mxCell>
        <mxCell id="MQegwMCzvPKAyx-gIZXv-2" value="Lietotājs&lt;div&gt;&lt;br&gt;&lt;/div&gt;" style="shape=umlActor;verticalLabelPosition=bottom;verticalAlign=top;html=1;outlineConnect=0;" parent="1" vertex="1">
          <mxGeometry x="164" y="247.5" width="30" height="60" as="geometry" />
        </mxCell>
        <mxCell id="MQegwMCzvPKAyx-gIZXv-3" value="" style="endArrow=none;html=1;rounded=0;" parent="1" target="MQegwMCzvPKAyx-gIZXv-8" edge="1">
          <mxGeometry width="50" height="50" relative="1" as="geometry">
            <mxPoint x="192.75" y="292.5" as="sourcePoint" />
            <mxPoint x="332.75" y="492.5" as="targetPoint" />
          </mxGeometry>
        </mxCell>
        <mxCell id="MQegwMCzvPKAyx-gIZXv-8" value="" style="ellipse;whiteSpace=wrap;html=1;" parent="1" vertex="1">
          <mxGeometry x="403.85" y="392.5" width="107.5" height="75" as="geometry" />
        </mxCell>
        <mxCell id="MQegwMCzvPKAyx-gIZXv-9" value="&lt;font&gt;&lt;b&gt;Reģistrācija&lt;/b&gt;&lt;/font&gt;" style="text;html=1;align=center;verticalAlign=middle;whiteSpace=wrap;rounded=0;fontSize=18;" parent="1" vertex="1">
          <mxGeometry x="422.6" y="410" width="70" height="40" as="geometry" />
        </mxCell>
        <mxCell id="MQegwMCzvPKAyx-gIZXv-20" value="" style="ellipse;whiteSpace=wrap;html=1;" parent="1" vertex="1">
          <mxGeometry x="410.25" y="82.5" width="91.25" height="65" as="geometry" />
        </mxCell>
        <mxCell id="MQegwMCzvPKAyx-gIZXv-23" value="" style="ellipse;whiteSpace=wrap;html=1;" parent="1" vertex="1">
          <mxGeometry x="222.75" y="125" width="107.5" height="75" as="geometry" />
        </mxCell>
        <mxCell id="MQegwMCzvPKAyx-gIZXv-24" value="" style="endArrow=none;html=1;rounded=0;entryX=0;entryY=1;entryDx=0;entryDy=0;exitX=0.75;exitY=0.1;exitDx=0;exitDy=0;exitPerimeter=0;" parent="1" source="MQegwMCzvPKAyx-gIZXv-2" target="MQegwMCzvPKAyx-gIZXv-23" edge="1">
          <mxGeometry width="50" height="50" relative="1" as="geometry">
            <mxPoint x="172.75" y="242.5" as="sourcePoint" />
            <mxPoint x="312.75" y="332.5" as="targetPoint" />
          </mxGeometry>
        </mxCell>
        <mxCell id="MQegwMCzvPKAyx-gIZXv-25" value="&lt;font&gt;&lt;b&gt;Viesu režīms&lt;/b&gt;&lt;/font&gt;" style="text;html=1;align=center;verticalAlign=middle;whiteSpace=wrap;rounded=0;fontSize=18;" parent="1" vertex="1">
          <mxGeometry x="241.5" y="142.5" width="70" height="40" as="geometry" />
        </mxCell>
        <mxCell id="MQegwMCzvPKAyx-gIZXv-28" value="&lt;font style=&quot;font-size: 14px;&quot;&gt;Apskatīt preci&lt;/font&gt;" style="text;html=1;align=center;verticalAlign=middle;whiteSpace=wrap;rounded=0;" parent="1" vertex="1">
          <mxGeometry x="425.88" y="90" width="60" height="50" as="geometry" />
        </mxCell>
        <mxCell id="MQegwMCzvPKAyx-gIZXv-31" value="" style="ellipse;whiteSpace=wrap;html=1;" parent="1" vertex="1">
          <mxGeometry x="410.25" y="202.5" width="91.25" height="65" as="geometry" />
        </mxCell>
        <mxCell id="MQegwMCzvPKAyx-gIZXv-32" value="&lt;font style=&quot;font-size: 14px;&quot;&gt;Veikt pirkumu&lt;/font&gt;" style="text;html=1;align=center;verticalAlign=middle;whiteSpace=wrap;rounded=0;" parent="1" vertex="1">
          <mxGeometry x="425.88" y="217.5" width="60" height="30" as="geometry" />
        </mxCell>
        <mxCell id="MQegwMCzvPKAyx-gIZXv-33" value="" style="endArrow=none;html=1;rounded=0;entryX=1;entryY=0.5;entryDx=0;entryDy=0;exitX=0.25;exitY=0.1;exitDx=0;exitDy=0;exitPerimeter=0;" parent="1" source="MQegwMCzvPKAyx-gIZXv-1" target="MQegwMCzvPKAyx-gIZXv-20" edge="1">
          <mxGeometry width="50" height="50" relative="1" as="geometry">
            <mxPoint x="572.75" y="282.5" as="sourcePoint" />
            <mxPoint x="542.75" y="292.5" as="targetPoint" />
          </mxGeometry>
        </mxCell>
        <mxCell id="MQegwMCzvPKAyx-gIZXv-34" value="" style="endArrow=none;html=1;rounded=0;entryX=0.949;entryY=0.287;entryDx=0;entryDy=0;exitX=0;exitY=0.5;exitDx=0;exitDy=0;entryPerimeter=0;" parent="1" source="MQegwMCzvPKAyx-gIZXv-20" target="MQegwMCzvPKAyx-gIZXv-23" edge="1">
          <mxGeometry width="50" height="50" relative="1" as="geometry">
            <mxPoint x="430.5" y="113.5" as="sourcePoint" />
            <mxPoint x="301.5" y="116.5" as="targetPoint" />
          </mxGeometry>
        </mxCell>
        <mxCell id="MQegwMCzvPKAyx-gIZXv-37" value="" style="endArrow=none;html=1;rounded=0;exitX=1;exitY=0.5;exitDx=0;exitDy=0;entryX=0;entryY=1;entryDx=0;entryDy=0;entryPerimeter=0;" parent="1" source="MQegwMCzvPKAyx-gIZXv-31" target="MQegwMCzvPKAyx-gIZXv-1" edge="1">
          <mxGeometry width="50" height="50" relative="1" as="geometry">
            <mxPoint x="582.75" y="262.5" as="sourcePoint" />
            <mxPoint x="622.75" y="212.5" as="targetPoint" />
          </mxGeometry>
        </mxCell>
        <mxCell id="MQegwMCzvPKAyx-gIZXv-38" value="" style="endArrow=classic;startArrow=classic;html=1;rounded=0;entryX=0.5;entryY=1;entryDx=0;entryDy=0;exitX=0.5;exitY=0;exitDx=0;exitDy=0;" parent="1" source="MQegwMCzvPKAyx-gIZXv-31" target="MQegwMCzvPKAyx-gIZXv-20" edge="1">
          <mxGeometry width="50" height="50" relative="1" as="geometry">
            <mxPoint x="482.75" y="194.5" as="sourcePoint" />
            <mxPoint x="472.75" y="142.5" as="targetPoint" />
          </mxGeometry>
        </mxCell>
        <mxCell id="MQegwMCzvPKAyx-gIZXv-40" value="" style="ellipse;whiteSpace=wrap;html=1;" parent="1" vertex="1">
          <mxGeometry x="410.25" y="310" width="91.25" height="65" as="geometry" />
        </mxCell>
        <mxCell id="MQegwMCzvPKAyx-gIZXv-41" value="&lt;font style=&quot;font-size: 14px;&quot;&gt;Kase&lt;/font&gt;" style="text;html=1;align=center;verticalAlign=middle;whiteSpace=wrap;rounded=0;" parent="1" vertex="1">
          <mxGeometry x="425.88" y="327.5" width="60" height="30" as="geometry" />
        </mxCell>
        <mxCell id="MQegwMCzvPKAyx-gIZXv-42" value="" style="endArrow=block;dashed=1;endFill=0;endSize=12;html=1;rounded=0;exitX=0.5;exitY=1;exitDx=0;exitDy=0;" parent="1" source="MQegwMCzvPKAyx-gIZXv-31" target="MQegwMCzvPKAyx-gIZXv-40" edge="1">
          <mxGeometry width="160" relative="1" as="geometry">
            <mxPoint x="502.75" y="262.5" as="sourcePoint" />
            <mxPoint x="662.75" y="262.5" as="targetPoint" />
          </mxGeometry>
        </mxCell>
        <mxCell id="MQegwMCzvPKAyx-gIZXv-43" value="" style="endArrow=none;html=1;rounded=0;exitX=1;exitY=0.5;exitDx=0;exitDy=0;" parent="1" source="MQegwMCzvPKAyx-gIZXv-40" target="MQegwMCzvPKAyx-gIZXv-47" edge="1">
          <mxGeometry width="50" height="50" relative="1" as="geometry">
            <mxPoint x="522.75" y="372.5" as="sourcePoint" />
            <mxPoint x="622.75" y="362.5" as="targetPoint" />
          </mxGeometry>
        </mxCell>
        <mxCell id="MQegwMCzvPKAyx-gIZXv-47" value="Grāmatvedis" style="shape=umlActor;verticalLabelPosition=bottom;verticalAlign=top;html=1;outlineConnect=0;" parent="1" vertex="1">
          <mxGeometry x="632.75" y="312.5" width="30" height="60" as="geometry" />
        </mxCell>
        <mxCell id="MQegwMCzvPKAyx-gIZXv-52" value="&lt;br&gt;&lt;span style=&quot;color: rgb(0, 0, 0); font-family: Helvetica; font-size: 12px; font-style: normal; font-variant-ligatures: normal; font-variant-caps: normal; font-weight: 400; letter-spacing: normal; orphans: 2; text-align: left; text-indent: 0px; text-transform: none; widows: 2; word-spacing: 0px; -webkit-text-stroke-width: 0px; white-space: normal; background-color: rgb(251, 251, 251); text-decoration-thickness: initial; text-decoration-style: initial; text-decoration-color: initial; float: none; display: inline !important;&quot;&gt;«ietver»&lt;/span&gt;&lt;div&gt;&lt;br/&gt;&lt;/div&gt;" style="text;html=1;align=center;verticalAlign=middle;whiteSpace=wrap;rounded=0;" parent="1" vertex="1">
          <mxGeometry x="440" y="162.5" width="80" height="30" as="geometry" />
        </mxCell>
        <mxCell id="MQegwMCzvPKAyx-gIZXv-53" value="&lt;span style=&quot;color: rgb(0, 0, 0); font-family: Helvetica; font-size: 12px; font-style: normal; font-variant-ligatures: normal; font-variant-caps: normal; font-weight: 400; letter-spacing: normal; orphans: 2; text-align: left; text-indent: 0px; text-transform: none; widows: 2; word-spacing: 0px; -webkit-text-stroke-width: 0px; white-space: normal; background-color: rgb(251, 251, 251); text-decoration-thickness: initial; text-decoration-style: initial; text-decoration-color: initial; float: none; display: inline !important;&quot;&gt;«ietver»&lt;/span&gt;" style="text;whiteSpace=wrap;html=1;" parent="1" vertex="1">
          <mxGeometry x="460" y="267.5" width="80" height="32.5" as="geometry" />
        </mxCell>
        <mxCell id="MQegwMCzvPKAyx-gIZXv-58" style="edgeStyle=orthogonalEdgeStyle;rounded=0;orthogonalLoop=1;jettySize=auto;html=1;" parent="1" edge="1">
          <mxGeometry relative="1" as="geometry">
            <mxPoint x="210" y="684.5" as="targetPoint" />
            <mxPoint x="130" y="684.5" as="sourcePoint" />
          </mxGeometry>
        </mxCell>
        <mxCell id="MQegwMCzvPKAyx-gIZXv-56" value="" style="rounded=0;whiteSpace=wrap;html=1;" parent="1" vertex="1">
          <mxGeometry x="10" y="660" width="120" height="50" as="geometry" />
        </mxCell>
        <mxCell id="MQegwMCzvPKAyx-gIZXv-57" value="pievienot grozā poga" style="text;html=1;align=center;verticalAlign=middle;whiteSpace=wrap;rounded=0;" parent="1" vertex="1">
          <mxGeometry x="10" y="670" width="120" height="30" as="geometry" />
        </mxCell>
        <mxCell id="MQegwMCzvPKAyx-gIZXv-61" value="" style="rounded=0;whiteSpace=wrap;html=1;" parent="1" vertex="1">
          <mxGeometry x="215.20000000000002" y="660" width="277.4" height="50" as="geometry" />
        </mxCell>
        <mxCell id="MQegwMCzvPKAyx-gIZXv-62" value="lietotāja izvēlētā prece būs pievienota grozā un lietotājam ir brīva izvēle turpināt iepirkšanos vai nospiest uz grozas pogu" style="text;html=1;align=center;verticalAlign=middle;whiteSpace=wrap;rounded=0;" parent="1" vertex="1">
          <mxGeometry x="215.35" y="670" width="270" height="30" as="geometry" />
        </mxCell>
        <mxCell id="MQegwMCzvPKAyx-gIZXv-64" value="" style="rounded=0;whiteSpace=wrap;html=1;" parent="1" vertex="1">
          <mxGeometry x="39.849999999999994" y="910" width="300" height="90" as="geometry" />
        </mxCell>
        <mxCell id="MQegwMCzvPKAyx-gIZXv-66" style="edgeStyle=orthogonalEdgeStyle;rounded=0;orthogonalLoop=1;jettySize=auto;html=1;entryX=0;entryY=0.5;entryDx=0;entryDy=0;exitX=1;exitY=0.5;exitDx=0;exitDy=0;" parent="1" source="MQegwMCzvPKAyx-gIZXv-64" target="MQegwMCzvPKAyx-gIZXv-67" edge="1">
          <mxGeometry relative="1" as="geometry">
            <mxPoint x="359.85" y="940" as="targetPoint" />
          </mxGeometry>
        </mxCell>
        <mxCell id="MQegwMCzvPKAyx-gIZXv-65" value="internetveikala papildcilnē parādīsies reCAPTCHA autentifikācijas poga, lai pārbaudītu lietotāja identitāti. Kā arī datubāze sameklē reģistrētā lietotāja informāciju (Vārds, Uzvārds, E-pasts) ar ko pats lietotājs pārbauda savu ievadīto konta informāciju. Parāda preces cenu zem reģistrētā lietotāja informāciju." style="text;html=1;align=center;verticalAlign=middle;whiteSpace=wrap;rounded=0;" parent="1" vertex="1">
          <mxGeometry x="42.27" y="930" width="295.15" height="50" as="geometry" />
        </mxCell>
        <mxCell id="MQegwMCzvPKAyx-gIZXv-67" value="" style="rounded=0;whiteSpace=wrap;html=1;" parent="1" vertex="1">
          <mxGeometry x="402.6" y="931.25" width="90" height="47.5" as="geometry" />
        </mxCell>
        <mxCell id="MQegwMCzvPKAyx-gIZXv-68" value="poga pirkt" style="text;html=1;align=center;verticalAlign=middle;whiteSpace=wrap;rounded=0;" parent="1" vertex="1">
          <mxGeometry x="417.6" y="940" width="60" height="30" as="geometry" />
        </mxCell>
        <mxCell id="7ilkys_7o96ZD207sqkN-2" value="" style="edgeStyle=orthogonalEdgeStyle;rounded=0;orthogonalLoop=1;jettySize=auto;html=1;exitX=1;exitY=0.5;exitDx=0;exitDy=0;" parent="1" source="MQegwMCzvPKAyx-gIZXv-61" target="7ilkys_7o96ZD207sqkN-1" edge="1">
          <mxGeometry relative="1" as="geometry">
            <mxPoint x="580" y="685" as="targetPoint" />
            <Array as="points" />
            <mxPoint x="493" y="685" as="sourcePoint" />
          </mxGeometry>
        </mxCell>
        <mxCell id="7ilkys_7o96ZD207sqkN-1" value="" style="rounded=0;whiteSpace=wrap;html=1;" parent="1" vertex="1">
          <mxGeometry x="10" y="740" width="90" height="50" as="geometry" />
        </mxCell>
        <mxCell id="7ilkys_7o96ZD207sqkN-5" value="lietotājs spēs apskatīt savu pievienoto preci savā grozā (spēs apskatīt preces kopsavilkuma informāciju un cenu) un ir pievienota poga, kas iegādās lietotāja izvēlēto preci" style="text;html=1;align=center;verticalAlign=middle;whiteSpace=wrap;rounded=0;" parent="1" vertex="1">
          <mxGeometry x="200.35" y="747.5" width="299.65" height="45" as="geometry" />
        </mxCell>
        <mxCell id="7ilkys_7o96ZD207sqkN-6" value="grozas poga" style="text;html=1;align=center;verticalAlign=middle;whiteSpace=wrap;rounded=0;" parent="1" vertex="1">
          <mxGeometry x="10" y="750" width="90" height="30" as="geometry" />
        </mxCell>
        <mxCell id="7ilkys_7o96ZD207sqkN-7" value="" style="endArrow=classic;html=1;rounded=0;" parent="1" edge="1">
          <mxGeometry width="50" height="50" relative="1" as="geometry">
            <mxPoint x="100" y="770" as="sourcePoint" />
            <mxPoint x="200" y="770" as="targetPoint" />
          </mxGeometry>
        </mxCell>
        <mxCell id="7ilkys_7o96ZD207sqkN-16" style="edgeStyle=orthogonalEdgeStyle;rounded=0;orthogonalLoop=1;jettySize=auto;html=1;exitX=0.5;exitY=0;exitDx=0;exitDy=0;entryX=1;entryY=0.5;entryDx=0;entryDy=0;" parent="1" source="7ilkys_7o96ZD207sqkN-13" target="7ilkys_7o96ZD207sqkN-5" edge="1">
          <mxGeometry relative="1" as="geometry" />
        </mxCell>
        <mxCell id="7ilkys_7o96ZD207sqkN-13" value="" style="rounded=0;whiteSpace=wrap;html=1;" parent="1" vertex="1">
          <mxGeometry x="10" y="820" width="90" height="50" as="geometry" />
        </mxCell>
        <mxCell id="7ilkys_7o96ZD207sqkN-17" style="edgeStyle=orthogonalEdgeStyle;rounded=0;orthogonalLoop=1;jettySize=auto;html=1;exitX=1;exitY=0.5;exitDx=0;exitDy=0;" parent="1" source="7ilkys_7o96ZD207sqkN-13" edge="1">
          <mxGeometry relative="1" as="geometry">
            <mxPoint x="160" y="845" as="targetPoint" />
          </mxGeometry>
        </mxCell>
        <mxCell id="7ilkys_7o96ZD207sqkN-14" value="iegādāties poga" style="text;html=1;align=center;verticalAlign=middle;whiteSpace=wrap;rounded=0;" parent="1" vertex="1">
          <mxGeometry x="25" y="830" width="60" height="30" as="geometry" />
        </mxCell>
        <mxCell id="7ilkys_7o96ZD207sqkN-23" style="edgeStyle=orthogonalEdgeStyle;rounded=0;orthogonalLoop=1;jettySize=auto;html=1;exitX=1;exitY=0.5;exitDx=0;exitDy=0;entryX=0;entryY=0.5;entryDx=0;entryDy=0;" parent="1" source="7ilkys_7o96ZD207sqkN-19" target="MQegwMCzvPKAyx-gIZXv-64" edge="1">
          <mxGeometry relative="1" as="geometry" />
        </mxCell>
        <mxCell id="7ilkys_7o96ZD207sqkN-19" value="" style="rounded=0;whiteSpace=wrap;html=1;" parent="1" vertex="1">
          <mxGeometry x="160" y="825" width="200" height="45" as="geometry" />
        </mxCell>
        <mxCell id="7ilkys_7o96ZD207sqkN-4" value="ģenerētais rēķins, kas parādīsies lietotāja papildcilnē internetveikalā" style="text;html=1;align=center;verticalAlign=middle;whiteSpace=wrap;rounded=0;" parent="1" vertex="1">
          <mxGeometry x="160" y="832.5" width="207.25" height="30" as="geometry" />
        </mxCell>
        <mxCell id="7ilkys_7o96ZD207sqkN-26" value="" style="endArrow=classic;html=1;rounded=0;exitX=1;exitY=0.5;exitDx=0;exitDy=0;" parent="1" source="MQegwMCzvPKAyx-gIZXv-67" edge="1">
          <mxGeometry width="50" height="50" relative="1" as="geometry">
            <mxPoint x="520" y="970" as="sourcePoint" />
            <mxPoint x="560" y="955" as="targetPoint" />
          </mxGeometry>
        </mxCell>
        <mxCell id="7ilkys_7o96ZD207sqkN-27" value="" style="rounded=0;whiteSpace=wrap;html=1;" parent="1" vertex="1">
          <mxGeometry x="562.75" y="910" width="227.25" height="90" as="geometry" />
        </mxCell>
        <mxCell id="7ilkys_7o96ZD207sqkN-28" value="Ja rēķins būs pabeigts un apstiprināts, tad ģenerētā rēķina papildcilne aizvērsies un no programmatūras pateiks &quot;paldies par aprēķinu&quot; un parādīs lietotāja nopirkto preces informāciju." style="text;html=1;align=center;verticalAlign=middle;whiteSpace=wrap;rounded=0;" parent="1" vertex="1">
          <mxGeometry x="562.75" y="910" width="227.25" height="90" as="geometry" />
        </mxCell>
      </root>
    </mxGraphModel>
  </diagram>
</mxfile>
